# xmcd
#
# Track frame offsets:
#	150
#	20317
#	43480
#	62662
#	83835
#	104460
#	126562
#	153132
#	174097
#	191995
#
# Disc length: 2825 seconds
#
# Revision: 2224907898
# Processed by: cddbd v1.5.2PL0 Copyright (c) Steve Scherf et al.
# Submitted via: EZCDAudioConverter 8.0.2.1
#
DISCID=830b070a
DTITLE=Various Artist - Top Hist 7. Bạn Tôi
DYEAR=2001
DGENRE=Miscellaneous
TTITLE0=Thế Sơn - Bạn Tôi
TTITLE1=Don Hồ - Người về từ lòng đất
TTITLE2=Ninh Cát Loan Châu - Bài ngợi ca tình yêu
TTITLE3=Châu Ngọc - Tiếc nuối cuộc tình
TTITLE4=Lynda Trang Đài - Tình phai
TTITLE5=Lây Minh - Mãi mãi còn yêu
TTITLE6=Ngọc Anh - Không còn ai
TTITLE7=Trúc Lam, Trúc Linh - Mưa phố
TTITLE8=Châu Ngọc - Lời tỏ tình dễ thương
TTITLE9=Tommy Ngô - Sinh nhật em
EXTD=
EXTT0=
EXTT1=
EXTT2=
EXTT3=
EXTT4=
EXTT5=
EXTT6=
EXTT7=
EXTT8=
EXTT9=
PLAYORDER=
